<mxfile host="app.diagrams.net" modified="2021-07-19T08:09:03.960Z" agent="5.0 (Windows NT 10.0; Win64; x64) AppleWebKit/537.36 (KHTML, like Gecko) Chrome/91.0.4472.124 Safari/537.36 Edg/91.0.864.67" etag="U_Iq8IYNDc8uXoaJjm6O" version="14.9.0" type="github">
  <diagram id="UNK-oPW378oT5y46WF0x" name="Page-1">
    <mxGraphModel dx="1021" dy="579" grid="1" gridSize="10" guides="1" tooltips="1" connect="1" arrows="1" fold="1" page="1" pageScale="1" pageWidth="827" pageHeight="1169" math="0" shadow="0">
      <root>
        <mxCell id="0" />
        <mxCell id="1" parent="0" />
        <mxCell id="2J0O7pO9YUwtcyIJuyCy-1" value="CardViewActivity" style="rounded=0;whiteSpace=wrap;html=1;" vertex="1" parent="1">
          <mxGeometry x="340" y="120" width="150" height="30" as="geometry" />
        </mxCell>
        <mxCell id="2J0O7pO9YUwtcyIJuyCy-8" style="edgeStyle=orthogonalEdgeStyle;rounded=0;orthogonalLoop=1;jettySize=auto;html=1;exitX=0;exitY=0.5;exitDx=0;exitDy=0;entryX=0.5;entryY=0;entryDx=0;entryDy=0;" edge="1" parent="1" source="2J0O7pO9YUwtcyIJuyCy-2" target="2J0O7pO9YUwtcyIJuyCy-3">
          <mxGeometry relative="1" as="geometry" />
        </mxCell>
        <mxCell id="2J0O7pO9YUwtcyIJuyCy-9" style="edgeStyle=orthogonalEdgeStyle;rounded=0;orthogonalLoop=1;jettySize=auto;html=1;exitX=1;exitY=0.5;exitDx=0;exitDy=0;entryX=0.5;entryY=0;entryDx=0;entryDy=0;" edge="1" parent="1" source="2J0O7pO9YUwtcyIJuyCy-2" target="2J0O7pO9YUwtcyIJuyCy-4">
          <mxGeometry relative="1" as="geometry" />
        </mxCell>
        <mxCell id="2J0O7pO9YUwtcyIJuyCy-2" value="MainCardViewFragment" style="rounded=0;whiteSpace=wrap;html=1;" vertex="1" parent="1">
          <mxGeometry x="340" y="150" width="150" height="20" as="geometry" />
        </mxCell>
        <mxCell id="2J0O7pO9YUwtcyIJuyCy-3" value="ErrorCardViewFragment" style="rounded=0;whiteSpace=wrap;html=1;" vertex="1" parent="1">
          <mxGeometry x="150" y="200" width="180" height="40" as="geometry" />
        </mxCell>
        <mxCell id="2J0O7pO9YUwtcyIJuyCy-11" style="edgeStyle=orthogonalEdgeStyle;rounded=0;orthogonalLoop=1;jettySize=auto;html=1;exitX=0;exitY=0.5;exitDx=0;exitDy=0;" edge="1" parent="1" source="2J0O7pO9YUwtcyIJuyCy-4" target="2J0O7pO9YUwtcyIJuyCy-10">
          <mxGeometry relative="1" as="geometry" />
        </mxCell>
        <mxCell id="2J0O7pO9YUwtcyIJuyCy-4" value="CardViewFragment" style="rounded=0;whiteSpace=wrap;html=1;" vertex="1" parent="1">
          <mxGeometry x="500" y="200" width="190" height="40" as="geometry" />
        </mxCell>
        <mxCell id="2J0O7pO9YUwtcyIJuyCy-10" value="CardViewPagerAdapter" style="rounded=0;whiteSpace=wrap;html=1;" vertex="1" parent="1">
          <mxGeometry x="320" y="280" width="200" height="40" as="geometry" />
        </mxCell>
      </root>
    </mxGraphModel>
  </diagram>
</mxfile>
